<mxfile host="app.diagrams.net" modified="2023-01-05T08:22:24.345Z" agent="5.0 (Windows NT 10.0; Win64; x64) AppleWebKit/537.36 (KHTML, like Gecko) Chrome/108.0.0.0 Safari/537.36" version="20.8.1" etag="57upCoM5By85nmyBQpzg" type="github">
  <diagram id="J66BFTBdmb0Ty-M9uGqU" name="Halaman-1">
    <mxGraphModel dx="1195" dy="663" grid="1" gridSize="10" guides="1" tooltips="1" connect="1" arrows="1" fold="1" page="1" pageScale="1" pageWidth="827" pageHeight="1169" math="0" shadow="0">
      <root>
        <mxCell id="0" />
        <mxCell id="1" parent="0" />
        <mxCell id="Fl7OIB9cjgy-vGUK5PAS-5" style="rounded=0;orthogonalLoop=1;jettySize=auto;html=1;exitX=0.5;exitY=1;exitDx=0;exitDy=0;entryX=0.5;entryY=0;entryDx=0;entryDy=0;" edge="1" parent="1" source="Fl7OIB9cjgy-vGUK5PAS-1" target="Fl7OIB9cjgy-vGUK5PAS-2">
          <mxGeometry relative="1" as="geometry" />
        </mxCell>
        <mxCell id="Fl7OIB9cjgy-vGUK5PAS-6" style="edgeStyle=none;rounded=0;orthogonalLoop=1;jettySize=auto;html=1;exitX=0.5;exitY=1;exitDx=0;exitDy=0;entryX=0.5;entryY=0;entryDx=0;entryDy=0;" edge="1" parent="1" source="Fl7OIB9cjgy-vGUK5PAS-1" target="Fl7OIB9cjgy-vGUK5PAS-4">
          <mxGeometry relative="1" as="geometry">
            <mxPoint x="414" y="440" as="targetPoint" />
          </mxGeometry>
        </mxCell>
        <mxCell id="Fl7OIB9cjgy-vGUK5PAS-7" style="edgeStyle=none;rounded=0;orthogonalLoop=1;jettySize=auto;html=1;exitX=0.5;exitY=1;exitDx=0;exitDy=0;entryX=0.5;entryY=0;entryDx=0;entryDy=0;" edge="1" parent="1" source="Fl7OIB9cjgy-vGUK5PAS-1" target="Fl7OIB9cjgy-vGUK5PAS-3">
          <mxGeometry relative="1" as="geometry" />
        </mxCell>
        <mxCell id="Fl7OIB9cjgy-vGUK5PAS-1" value="Apple" style="rounded=0;whiteSpace=wrap;html=1;" vertex="1" parent="1">
          <mxGeometry x="354" y="320" width="120" height="60" as="geometry" />
        </mxCell>
        <mxCell id="Fl7OIB9cjgy-vGUK5PAS-23" style="edgeStyle=orthogonalEdgeStyle;rounded=0;orthogonalLoop=1;jettySize=auto;html=1;exitX=0;exitY=0.5;exitDx=0;exitDy=0;entryX=0;entryY=0.5;entryDx=0;entryDy=0;" edge="1" parent="1" source="Fl7OIB9cjgy-vGUK5PAS-2" target="Fl7OIB9cjgy-vGUK5PAS-9">
          <mxGeometry relative="1" as="geometry" />
        </mxCell>
        <mxCell id="Fl7OIB9cjgy-vGUK5PAS-24" style="edgeStyle=orthogonalEdgeStyle;rounded=0;orthogonalLoop=1;jettySize=auto;html=1;exitX=0;exitY=0.5;exitDx=0;exitDy=0;entryX=0;entryY=0.5;entryDx=0;entryDy=0;" edge="1" parent="1" source="Fl7OIB9cjgy-vGUK5PAS-2" target="Fl7OIB9cjgy-vGUK5PAS-10">
          <mxGeometry relative="1" as="geometry">
            <Array as="points">
              <mxPoint x="140" y="480" />
              <mxPoint x="140" y="730" />
            </Array>
          </mxGeometry>
        </mxCell>
        <mxCell id="Fl7OIB9cjgy-vGUK5PAS-2" value="SERVIS APPLE" style="rounded=1;whiteSpace=wrap;html=1;" vertex="1" parent="1">
          <mxGeometry x="170" y="450" width="120" height="60" as="geometry" />
        </mxCell>
        <mxCell id="Fl7OIB9cjgy-vGUK5PAS-26" style="edgeStyle=orthogonalEdgeStyle;rounded=0;orthogonalLoop=1;jettySize=auto;html=1;exitX=1;exitY=0.5;exitDx=0;exitDy=0;entryX=1;entryY=0.5;entryDx=0;entryDy=0;" edge="1" parent="1" source="Fl7OIB9cjgy-vGUK5PAS-3" target="Fl7OIB9cjgy-vGUK5PAS-25">
          <mxGeometry relative="1" as="geometry" />
        </mxCell>
        <mxCell id="Fl7OIB9cjgy-vGUK5PAS-3" value="APPLE DEVICE" style="rounded=1;whiteSpace=wrap;html=1;" vertex="1" parent="1">
          <mxGeometry x="530" y="450" width="120" height="60" as="geometry" />
        </mxCell>
        <mxCell id="Fl7OIB9cjgy-vGUK5PAS-18" style="edgeStyle=none;rounded=0;orthogonalLoop=1;jettySize=auto;html=1;exitX=0.5;exitY=1;exitDx=0;exitDy=0;entryX=0.5;entryY=0;entryDx=0;entryDy=0;" edge="1" parent="1" source="Fl7OIB9cjgy-vGUK5PAS-4" target="Fl7OIB9cjgy-vGUK5PAS-11">
          <mxGeometry relative="1" as="geometry" />
        </mxCell>
        <mxCell id="Fl7OIB9cjgy-vGUK5PAS-4" value="AKSESORIS" style="rounded=1;whiteSpace=wrap;html=1;" vertex="1" parent="1">
          <mxGeometry x="350" y="450" width="120" height="60" as="geometry" />
        </mxCell>
        <mxCell id="Fl7OIB9cjgy-vGUK5PAS-9" value="SOFTWARE&lt;br&gt;&lt;div style=&quot;text-align: left;&quot;&gt;&lt;span style=&quot;background-color: initial;&quot;&gt;&amp;gt;disable itunes&lt;/span&gt;&lt;/div&gt;&lt;div style=&quot;text-align: left;&quot;&gt;&lt;span style=&quot;background-color: initial;&quot;&gt;&amp;gt;lupa passcode&lt;/span&gt;&lt;/div&gt;&lt;div style=&quot;text-align: left;&quot;&gt;&lt;span style=&quot;background-color: initial;&quot;&gt;&amp;gt;buat iCloud&lt;/span&gt;&lt;/div&gt;&lt;div style=&quot;text-align: left;&quot;&gt;&lt;span style=&quot;background-color: initial;&quot;&gt;&amp;gt;instal ulang&lt;/span&gt;&lt;/div&gt;&lt;div style=&quot;text-align: left;&quot;&gt;&lt;span style=&quot;background-color: initial;&quot;&gt;&amp;gt;problem aplikasi&lt;/span&gt;&lt;/div&gt;&lt;div style=&quot;text-align: left;&quot;&gt;&lt;span style=&quot;background-color: initial;&quot;&gt;&amp;gt;recovery email/icloud&lt;/span&gt;&lt;/div&gt;&lt;div style=&quot;text-align: left;&quot;&gt;&lt;span style=&quot;background-color: initial;&quot;&gt;&amp;gt;logo komputer&lt;/span&gt;&lt;/div&gt;&lt;div style=&quot;text-align: left;&quot;&gt;&lt;span style=&quot;background-color: initial;&quot;&gt;&amp;gt;instal macbook&lt;/span&gt;&lt;/div&gt;&lt;div style=&quot;text-align: left;&quot;&gt;&lt;span style=&quot;background-color: initial;&quot;&gt;&amp;gt;aplikasi mabook&lt;/span&gt;&lt;/div&gt;&lt;div style=&quot;text-align: left;&quot;&gt;&lt;span style=&quot;background-color: initial;&quot;&gt;dll&lt;/span&gt;&lt;/div&gt;" style="rounded=1;whiteSpace=wrap;html=1;" vertex="1" parent="1">
          <mxGeometry x="169" y="520" width="141" height="170" as="geometry" />
        </mxCell>
        <mxCell id="Fl7OIB9cjgy-vGUK5PAS-10" value="HARDWARE&lt;br&gt;&lt;div style=&quot;text-align: left;&quot;&gt;&lt;span style=&quot;background-color: initial;&quot;&gt;&amp;gt;lcd&lt;/span&gt;&lt;/div&gt;&lt;div style=&quot;text-align: left;&quot;&gt;&lt;span style=&quot;background-color: initial;&quot;&gt;&amp;gt;batt&lt;/span&gt;&lt;/div&gt;&lt;div style=&quot;text-align: left;&quot;&gt;&lt;span style=&quot;background-color: initial;&quot;&gt;&amp;gt;kamera&lt;/span&gt;&lt;/div&gt;&lt;div style=&quot;text-align: left;&quot;&gt;&lt;span style=&quot;background-color: initial;&quot;&gt;&amp;gt;tombol&lt;/span&gt;&lt;/div&gt;&lt;div style=&quot;text-align: left;&quot;&gt;&lt;span style=&quot;background-color: initial;&quot;&gt;&amp;gt;konektor cas&lt;/span&gt;&lt;/div&gt;&lt;div style=&quot;text-align: left;&quot;&gt;&lt;span style=&quot;background-color: initial;&quot;&gt;&amp;gt;IC&lt;/span&gt;&lt;/div&gt;&lt;div style=&quot;text-align: left;&quot;&gt;&lt;span style=&quot;background-color: initial;&quot;&gt;dll&lt;/span&gt;&lt;/div&gt;" style="rounded=1;whiteSpace=wrap;html=1;" vertex="1" parent="1">
          <mxGeometry x="170" y="700" width="120" height="130" as="geometry" />
        </mxCell>
        <mxCell id="Fl7OIB9cjgy-vGUK5PAS-11" value="&amp;gt;Charger&lt;br&gt;&amp;gt;Tempered Glass&lt;br&gt;&amp;gt;Case&lt;br&gt;dll" style="rounded=1;whiteSpace=wrap;html=1;align=left;" vertex="1" parent="1">
          <mxGeometry x="350" y="540" width="120" height="70" as="geometry" />
        </mxCell>
        <mxCell id="Fl7OIB9cjgy-vGUK5PAS-17" style="edgeStyle=none;rounded=0;orthogonalLoop=1;jettySize=auto;html=1;exitX=0.5;exitY=0;exitDx=0;exitDy=0;entryX=0.5;entryY=1;entryDx=0;entryDy=0;" edge="1" parent="1" source="Fl7OIB9cjgy-vGUK5PAS-16" target="Fl7OIB9cjgy-vGUK5PAS-11">
          <mxGeometry relative="1" as="geometry" />
        </mxCell>
        <mxCell id="Fl7OIB9cjgy-vGUK5PAS-16" value="macbook, ipad, &lt;br&gt;iphone, watch,&lt;br&gt;&amp;nbsp;harga garansi" style="shape=parallelogram;perimeter=parallelogramPerimeter;whiteSpace=wrap;html=1;fixedSize=1;" vertex="1" parent="1">
          <mxGeometry x="344" y="650" width="130" height="60" as="geometry" />
        </mxCell>
        <mxCell id="Fl7OIB9cjgy-vGUK5PAS-25" value="&amp;gt;iPhone&lt;br&gt;&amp;gt;Macbook&lt;br&gt;&amp;gt;iMac&lt;br&gt;&amp;gt;iWatch&lt;br&gt;&amp;gt;iPad&lt;br&gt;&amp;gt;apple pencil&lt;br&gt;&amp;gt;Apple power bank&lt;br&gt;&amp;gt;airpods&lt;br&gt;&amp;gt;headphone&lt;br&gt;dll cek werb store apple" style="rounded=1;whiteSpace=wrap;html=1;" vertex="1" parent="1">
          <mxGeometry x="530" y="525" width="120" height="165" as="geometry" />
        </mxCell>
      </root>
    </mxGraphModel>
  </diagram>
</mxfile>
